<?xml version="1.0" encoding="UTF-8"?>
<svg width="17px" height="17px" viewBox="0 0 17 17" version="1.1" xmlns="http://www.w3.org/2000/svg" xmlns:xlink="http://www.w3.org/1999/xlink">
    <title>data-ops</title>
    <defs>
        <filter id="filter-1">
            <feColorMatrix in="SourceGraphic" type="matrix" values="0 0 0 0 1.000000 0 0 0 0 0.352941 0 0 0 0 0.352941 0 0 0 1.000000 0"></feColorMatrix>
        </filter>
    </defs>
    <g id="Page-2" stroke="none" stroke-width="1" fill="none" fill-rule="evenodd">
        <g id="data-ops" transform="translate(-23.000000, -148.000000)" filter="url(#filter-1)">
            <g transform="translate(24.000000, 149.000000)">
                <path d="M3.671325,7.6271625 C3.74903437,7.5826125 3.8444625,7.5826125 3.922425,7.6271625 L3.922425,7.6271625 L7.466175,9.6521625 C7.54515,9.69721875 7.59375,9.78100312 7.59375,9.871875 L7.59375,9.871875 L7.59375,13.415625 C7.59375,13.5064969 7.54515,13.5902813 7.466175,13.6353375 L7.466175,13.6353375 L3.922425,15.6603375 C3.88344375,15.6826125 3.84015937,15.69375 3.796875,15.69375 C3.75359063,15.69375 3.71030625,15.6826125 3.671325,15.6603375 L3.671325,15.6603375 L0.127575,13.6353375 C0.0486,13.5902813 0,13.5064969 0,13.415625 L0,13.415625 L0,9.871875 C0,9.78100312 0.0486,9.69721875 0.127575,9.6521625 L0.127575,9.6521625 Z M11.771325,7.6271625 C11.8490344,7.5826125 11.9444625,7.5826125 12.022425,7.6271625 L12.022425,7.6271625 L15.566175,9.6521625 C15.64515,9.69721875 15.69375,9.78100312 15.69375,9.871875 L15.69375,9.871875 L15.69375,13.415625 C15.69375,13.5064969 15.64515,13.5902813 15.566175,13.6353375 L15.566175,13.6353375 L12.022425,15.6603375 C11.9834437,15.6826125 11.9401594,15.69375 11.896875,15.69375 C11.8535906,15.69375 11.8103063,15.6826125 11.771325,15.6603375 L11.771325,15.6603375 L8.227575,13.6353375 C8.1486,13.5902813 8.1,13.5064969 8.1,13.415625 L8.1,13.415625 L8.1,9.871875 C8.1,9.78100312 8.1486,9.69721875 8.227575,9.6521625 L8.227575,9.6521625 Z M0.50625,10.3080094 L0.50625,13.2688125 L3.54375,15.0044906 L3.54375,12.0436875 L0.50625,10.3080094 Z M7.0875,10.3080094 L4.05,12.0436875 L4.05,15.0044906 L7.0875,13.2688125 L7.0875,10.3080094 Z M8.60625,10.3080094 L8.60625,13.2688125 L11.64375,15.0044906 L11.64375,12.0436875 L8.60625,10.3080094 Z M15.1875,10.3080094 L12.15,12.0436875 L12.15,15.0044906 L15.1875,13.2688125 L15.1875,10.3080094 Z M3.796875,8.138475 L0.763425,9.871875 L3.796875,11.605275 L6.830325,9.871875 L3.796875,8.138475 Z M11.896875,8.138475 L8.863425,9.871875 L11.896875,11.605275 L14.930325,9.871875 L11.896875,8.138475 Z M7.846875,0 C8.26554375,0 8.60625,0.34070625 8.60625,0.759375 C8.60625,0.80544375 8.60042813,0.850246875 8.59283438,0.893784375 L8.59283438,0.893784375 L10.8980438,2.21104688 C11.0309344,2.09663438 11.2017938,2.02474688 11.390625,2.02474688 C11.8092938,2.02474688 12.15,2.36545313 12.15,2.78412188 C12.15,3.11369063 11.9376281,3.39212813 11.64375,3.49692188 L11.64375,3.49692188 L11.64375,5.615325 C11.9376281,5.72011875 12.15,5.99855625 12.15,6.328125 C12.15,6.74679375 11.8092938,7.0875 11.390625,7.0875 C11.2017938,7.0875 11.0309344,7.0156125 10.8977906,6.9012 L10.8977906,6.9012 L8.59435313,8.21745 C8.5374,8.58017812 8.22529688,8.859375 7.846875,8.859375 C7.46845312,8.859375 7.15635,8.58017812 7.09939688,8.21770312 L7.09939688,8.21770312 L4.79570625,6.90145312 C4.66281563,7.01586562 4.49195625,7.08775312 4.303125,7.08775312 C3.88445625,7.08775312 3.54375,6.74704687 3.54375,6.32837812 C3.54375,5.99880937 3.75612188,5.72037188 4.05,5.61557812 L4.05,5.61557812 L4.05,3.497175 C3.75612188,3.39238125 3.54375,3.11394375 3.54375,2.784375 C3.54375,2.36570625 3.88445625,2.025 4.303125,2.025 C4.49195625,2.025 4.66281563,2.0968875 4.79595937,2.2113 L4.79595937,2.2113 L7.10116875,0.8940375 C7.09332188,0.850246875 7.0875,0.80544375 7.0875,0.759375 C7.0875,0.34070625 7.42820625,0 7.846875,0 Z M7.846875,7.846875 C7.70740313,7.846875 7.59375,7.96052813 7.59375,8.1 C7.59375,8.23947188 7.70740313,8.353125 7.846875,8.353125 C7.98634688,8.353125 8.1,8.23947188 8.1,8.1 C8.1,7.96052813 7.98634688,7.846875 7.846875,7.846875 Z M10.8977906,3.35719688 L8.59258125,4.67445938 C8.60042813,4.71825 8.60625,4.76305313 8.60625,4.80912188 C8.60625,5.13869063 8.39387813,5.41712813 8.1,5.52192188 L8.1,5.52192188 L8.1,7.3872 C8.26124063,7.44465938 8.39716875,7.55325 8.48702812,7.69575938 L8.48702812,7.69575938 L10.6446656,6.4627875 C10.6368187,6.41899688 10.6309969,6.37419375 10.6309969,6.328125 C10.6309969,5.99855625 10.8433687,5.72011875 11.1372469,5.615325 L11.1372469,5.615325 L11.1372469,3.49692188 C11.0484,3.46502813 10.9679063,3.41769375 10.8977906,3.35719688 L10.8977906,3.35719688 Z M4.79570625,3.35719688 C4.72559063,3.41769375 4.64509688,3.46528125 4.55625,3.49692188 L4.55625,3.49692188 L4.55625,5.615325 C4.85012813,5.72011875 5.0625,5.99855625 5.0625,6.328125 C5.0625,6.37419375 5.05667813,6.41899688 5.04883125,6.4627875 L5.04883125,6.4627875 L7.20646875,7.69575938 C7.29658125,7.55325 7.43250938,7.44465938 7.59375,7.38745313 L7.59375,7.38745313 L7.59375,5.522175 C7.29987188,5.41738125 7.0875,5.13894375 7.0875,4.809375 C7.0875,4.76330625 7.09332187,4.71850313 7.10091563,4.67445938 L7.10091563,4.67445938 Z M11.390625,6.075 C11.2511531,6.075 11.1375,6.18865313 11.1375,6.328125 C11.1375,6.46759687 11.2511531,6.58125 11.390625,6.58125 C11.5300969,6.58125 11.64375,6.46759687 11.64375,6.328125 C11.64375,6.18865313 11.5300969,6.075 11.390625,6.075 Z M4.303125,6.075 C4.16365313,6.075 4.05,6.18865313 4.05,6.328125 C4.05,6.46759687 4.16365313,6.58125 4.303125,6.58125 C4.44259687,6.58125 4.55625,6.46759687 4.55625,6.328125 C4.55625,6.18865313 4.44259687,6.075 4.303125,6.075 Z M7.846875,4.55625 C7.70740313,4.55625 7.59375,4.66990313 7.59375,4.809375 C7.59375,4.94884688 7.70740313,5.0625 7.846875,5.0625 C7.98634688,5.0625 8.1,4.94884688 8.1,4.809375 C8.1,4.66990313 7.98634688,4.55625 7.846875,4.55625 Z M8.33945625,1.33245 C8.20656563,1.4468625 8.03570625,1.51875 7.846875,1.51875 C7.65804375,1.51875 7.48718438,1.4468625 7.35404063,1.33245 L7.35404063,1.33245 L5.04883125,2.6497125 C5.05667813,2.69350312 5.0625,2.73830625 5.0625,2.784375 C5.0625,2.83044375 5.05667813,2.87524688 5.04908438,2.9190375 L5.04908438,2.9190375 L7.35429375,4.2363 C7.48718438,4.1218875 7.65804375,4.05 7.846875,4.05 C8.03570625,4.05 8.20656563,4.1218875 8.33970938,4.2363 L8.33970938,4.2363 L10.6449188,2.9190375 C10.6370719,2.87524688 10.63125,2.83044375 10.63125,2.784375 C10.63125,2.73830625 10.6370719,2.69350312 10.6446656,2.6497125 L10.6446656,2.6497125 Z M11.390625,2.53125 C11.2511531,2.53125 11.1375,2.64490312 11.1375,2.784375 C11.1375,2.92384688 11.2511531,3.0375 11.390625,3.0375 C11.5300969,3.0375 11.64375,2.92384688 11.64375,2.784375 C11.64375,2.64490312 11.5300969,2.53125 11.390625,2.53125 Z M4.303125,2.53125 C4.16365313,2.53125 4.05,2.64490312 4.05,2.784375 C4.05,2.92384688 4.16365313,3.0375 4.303125,3.0375 C4.44259687,3.0375 4.55625,2.92384688 4.55625,2.784375 C4.55625,2.64490312 4.44259687,2.53125 4.303125,2.53125 Z M7.846875,0.50625 C7.70740313,0.50625 7.59375,0.619903125 7.59375,0.759375 C7.59375,0.898846875 7.70740312,1.0125 7.846875,1.0125 C7.98634688,1.0125 8.1,0.898846875 8.1,0.759375 C8.1,0.619903125 7.98634688,0.50625 7.846875,0.50625 Z" id="Combined-Shape" stroke="#979797" stroke-width="0.5" fill="#000000" fill-rule="nonzero"></path>
            </g>
        </g>
    </g>
</svg>