<?xml version="1.0" encoding="UTF-8"?>
<svg width="18px" height="19px" viewBox="0 0 18 19" version="1.1" xmlns="http://www.w3.org/2000/svg" xmlns:xlink="http://www.w3.org/1999/xlink">
    <title>entity</title>
    <defs>
        <filter id="filter-1">
            <feColorMatrix in="SourceGraphic" type="matrix" values="0 0 0 0 0.007843 0 0 0 0 0.729412 0 0 0 0 0.129412 0 0 0 1.000000 0"></feColorMatrix>
        </filter>
    </defs>
    <g id="Page-2" stroke="none" stroke-width="1" fill="none" fill-rule="evenodd">
        <g id="entity" transform="translate(-23.000000, -242.000000)" filter="url(#filter-1)">
            <g transform="translate(23.000000, 242.000000)">
                <path d="M15.8332075,11.3227397 L15.8332075,7.4169863 C16.6686792,7.2 17.28,6.48986301 17.28,5.62191781 C17.28,4.59616438 16.4241509,3.76767123 15.3645283,3.76767123 C14.834717,3.76767123 14.3456604,3.98465753 13.9992453,4.32 L10.5554717,2.38684932 C10.6166038,2.20931507 10.6369811,2.05150685 10.6369811,1.85424658 C10.6369811,0.828493151 9.78113208,0 8.72150943,0 C7.66188679,0 6.80603774,0.828493151 6.80603774,1.85424658 C6.80603774,2.01205479 6.82641509,2.16986301 6.86716981,2.30794521 L3.30113208,4.32 C2.95471698,3.98465753 2.46566038,3.76767123 1.93584906,3.76767123 C0.876226415,3.76767123 0.0203773585,4.59616438 0.0203773585,5.62191781 C0.0203773585,6.48986301 0.631698113,7.2 1.46716981,7.4169863 L1.46716981,11.3424658 C0.611320755,11.539726 0,12.249863 0,13.1178082 C0,14.1435616 0.855849057,14.9720548 1.9154717,14.9720548 C2.44528302,14.9720548 2.93433962,14.7550685 3.28075472,14.419726 L6.78566038,16.3726027 C6.74490566,16.530411 6.70415094,16.6882192 6.70415094,16.8657534 C6.70415094,17.8915068 7.56,18.72 8.61962264,18.72 C9.67924528,18.72 10.5350943,17.8915068 10.5350943,16.8657534 C10.5350943,16.6882192 10.4943396,16.530411 10.4535849,16.3726027 L13.9584906,14.419726 C14.3049057,14.7550685 14.7939623,14.9720548 15.3237736,14.9720548 C16.3833962,14.9720548 17.2392453,14.1435616 17.2392453,13.1178082 C17.28,12.249863 16.6686792,11.539726 15.8332075,11.3227397 Z M2.4045283,11.3227397 L2.4045283,7.4169863 C2.77132075,7.31835616 3.07698113,7.14082192 3.32150943,6.88438356 L6.80603774,8.81753425 C6.74490566,8.99506849 6.70415094,9.17260274 6.70415094,9.36986301 C6.70415094,9.56712329 6.74490566,9.76438356 6.80603774,9.94191781 L3.34188679,11.8750685 C3.09735849,11.6186301 2.77132075,11.4213699 2.4045283,11.3227397 Z M10.4535849,8.79780822 L13.9381132,6.86465753 C14.1826415,7.12109589 14.5086792,7.31835616 14.8754717,7.4169863 L14.8754717,11.3424658 C14.5086792,11.4410959 14.1622642,11.6383562 13.9177358,11.9145205 L10.4535849,9.98136986 C10.514717,9.80383562 10.5554717,9.60657534 10.5554717,9.38958904 C10.5554717,9.17260274 10.514717,8.97534247 10.4535849,8.79780822 Z M13.530566,6.1939726 L10.0664151,8.12712329 C9.80150943,7.83123288 9.43471698,7.6339726 9.02716981,7.55506849 L9.02716981,3.68876712 C9.43471698,3.62958904 9.78113208,3.45205479 10.0664151,3.19561644 L13.530566,5.12876712 C13.4898113,5.28657534 13.4490566,5.44438356 13.4490566,5.62191781 C13.4286792,5.81917808 13.469434,5.99671233 13.530566,6.1939726 Z M7.3154717,3.13643836 C7.56,3.37315068 7.86566038,3.55068493 8.21207547,3.64931507 L8.21207547,7.55506849 C7.8045283,7.6339726 7.45811321,7.8509589 7.19320755,8.14684932 L3.7290566,6.21369863 C3.79018868,6.03616438 3.8309434,5.83890411 3.8309434,5.62191781 C3.8309434,5.44438356 3.79018868,5.28657534 3.74943396,5.12876712 L7.3154717,3.13643836 Z M3.76981132,13.6109589 C3.81056604,13.4531507 3.85132075,13.2953425 3.85132075,13.1178082 C3.85132075,12.9205479 3.81056604,12.7232877 3.74943396,12.5457534 L7.21358491,10.6126027 C7.47849057,10.8887671 7.82490566,11.0860274 8.21207547,11.1846575 L8.21207547,15.0706849 C7.84528302,15.149589 7.51924528,15.3271233 7.27471698,15.5835616 L3.76981132,13.6109589 Z M10.005283,15.5638356 C9.74037736,15.3073973 9.39396226,15.110137 9.00679245,15.0509589 L9.00679245,11.1846575 C9.41433962,11.1057534 9.76075472,10.9084932 10.0256604,10.6126027 L13.530566,12.5852055 C13.469434,12.7627397 13.4286792,12.940274 13.4286792,13.1375342 C13.4286792,13.3150685 13.469434,13.4728767 13.5101887,13.6306849 L10.005283,15.5638356 Z" id="Shape" fill="#000000" fill-rule="nonzero"></path>
            </g>
        </g>
    </g>
</svg>