<?xml version="1.0" encoding="UTF-8"?>
<svg width="20px" height="16px" viewBox="0 0 20 16" version="1.1" xmlns="http://www.w3.org/2000/svg" xmlns:xlink="http://www.w3.org/1999/xlink">
    <title>identity</title>
    <defs>
        <filter id="filter-1">
            <feColorMatrix in="SourceGraphic" type="matrix" values="0 0 0 0 0.141176 0 0 0 0 0.627451 0 0 0 0 0.984314 0 0 0 1.000000 0"></feColorMatrix>
        </filter>
        <filter id="filter-2">
            <feColorMatrix in="SourceGraphic" type="matrix" values="0 0 0 0 0.533333 0 0 0 0 0.556863 0 0 0 0 0.658824 0 0 0 1.000000 0"></feColorMatrix>
        </filter>
    </defs>
    <g id="Page-2" stroke="none" stroke-width="1" fill="none" fill-rule="evenodd">
        <g id="identity" transform="translate(-22.000000, -336.000000)" filter="url(#filter-1)">
            <g transform="translate(22.000000, 336.000000)" filter="url(#filter-2)" id="Group">
                <g>
                    <path d="M13.6147366,12.5551463 C12.4951695,13.5147753 11.0557259,14.0345743 9.59629014,14.0345743 C6.15761951,14.0345743 3.35870155,11.2356564 3.35870155,7.79698574 L3.35870155,7.65703984 L4.53824555,7.65703984 C4.79814507,7.65703984 5.01806005,7.51709394 5.13801368,7.29717896 C5.25796731,7.07726398 5.25796731,6.79737218 5.11802141,6.59744947 L3.23874792,3.67857789 C2.9788484,3.27873246 2.31910345,3.27873246 2.0791962,3.67857789 L0.199922711,6.59744947 C0.0599768134,6.81736445 0.0599768134,7.07726398 0.17993044,7.29717896 C0.299884067,7.51709394 0.53979132,7.65703984 0.779698574,7.65703984 L1.95924257,7.65703984 L1.95924257,7.79698574 C1.97923484,11.9953627 5.3979132,15.414041 9.59629014,15.414041 C11.3955945,15.414041 13.1549144,14.7742884 14.5143888,13.6147366 C14.8142729,13.3748294 14.8342652,12.9349994 14.5943579,12.6351154 C14.3544507,12.3552236 13.9146207,12.315239 13.6147366,12.5551463 Z" id="Path" fill="#000000" fill-rule="nonzero"></path>
                    <path d="M19.0126498,8.29679252 C18.8926962,8.07687754 18.652789,7.93693164 18.4128817,7.93693164 L17.2333377,7.93693164 L17.2333377,7.79698574 C17.2133454,3.5986088 13.7946671,0.17993044 9.59629014,0.17993044 C7.79698574,0.17993044 6.05765815,0.819683116 4.67819144,1.97923484 C4.37830738,2.2191421 4.35831511,2.65897206 4.59822236,2.95885613 C4.83812961,3.25874019 5.27795958,3.27873246 5.57784364,3.03882521 C6.69741083,2.0791962 8.13685435,1.55939715 9.59629014,1.55939715 C13.0349608,1.55939715 15.8338787,4.35831511 15.8338787,7.79698574 L15.8338787,7.93693164 L14.6543347,7.93693164 C14.3944352,7.93693164 14.1745202,8.07687754 14.0545666,8.29679252 C13.934613,8.5167075 13.934613,8.7965993 14.0745589,8.99652201 L15.9538324,11.9153936 C16.073786,12.1153163 16.293701,12.2352699 16.5336082,12.2352699 C16.7735155,12.2352699 16.9934305,12.1153163 17.1133841,11.9153936 L18.9926576,8.99652201 C19.1126112,8.7965993 19.1326035,8.5167075 19.0126498,8.29679252 Z" id="Path" fill="#000000" fill-rule="nonzero"></path>
                    <path d="M12.6551076,7.79698574 C12.6551076,6.11763496 11.2756409,4.73816826 9.59629014,4.73816826 C7.91693937,4.73816826 6.53747266,6.11763496 6.53747266,7.79698574 C6.53747266,9.47633651 7.91693937,10.8558032 9.59629014,10.8558032 C11.2756409,10.8558032 12.6551076,9.47633651 12.6551076,7.79698574 Z M7.91693937,7.79698574 C7.91693937,6.87734127 8.67664567,6.11763496 9.59629014,6.11763496 C10.5159346,6.11763496 11.2756409,6.87734127 11.2756409,7.79698574 C11.2756409,8.71663021 10.5159346,9.47633651 9.59629014,9.47633651 C8.67664567,9.47633651 7.91693937,8.71663021 7.91693937,7.79698574 Z" id="Shape" fill="#000000" fill-rule="nonzero"></path>
                </g>
            </g>
        </g>
    </g>
</svg>