<?xml version="1.0" encoding="UTF-8"?>
<svg width="20px" height="14px" viewBox="0 0 20 14" version="1.1" xmlns="http://www.w3.org/2000/svg" xmlns:xlink="http://www.w3.org/1999/xlink">
    <title>insights</title>
    <defs>
        <filter id="filter-1">
            <feColorMatrix in="SourceGraphic" type="matrix" values="0 0 0 0 1.000000 0 0 0 0 0.352941 0 0 0 0 0.352941 0 0 0 1.000000 0"></feColorMatrix>
        </filter>
    </defs>
    <g id="Page-2" stroke="none" stroke-width="1" fill="none" fill-rule="evenodd">
        <g id="insights" transform="translate(-22.000000, -292.000000)" filter="url(#filter-1)">
            <g transform="translate(22.000000, 292.000000)">
                <path d="M16.2048,10.5408 C16.2048,10.8096 15.9936,11.0208 15.7248,11.0208 L11.6928,11.0208 C11.5392,11.3472 11.2128,11.5776 10.8096,11.5776 L8.3904,11.5776 C8.0064,11.5776 7.6608,11.3472 7.5072,11.0208 L3.4752,11.0208 C3.2064,11.0208 2.9952,10.8096 2.9952,10.5408 C2.9952,10.272 3.2064,10.0608 3.4752,10.0608 L7.8912,10.0608 C8.16,10.0608 8.3712,10.272 8.3712,10.5408 L8.3712,10.6176 L10.8096,10.6176 L10.8096,10.5408 C10.8096,10.272 11.0208,10.0608 11.2896,10.0608 L15.7248,10.0608 C15.9744,10.0608 16.2048,10.2912 16.2048,10.5408 Z M17.7408,1.4016 L17.7408,10.0608 L18.6432,10.0608 C18.912,10.0608 19.1232,10.272 19.1232,10.5408 L19.1232,11.4432 C19.1232,12.4608 18.2976,13.2864 17.28,13.2864 L1.92,13.2864 C0.9024,13.2864 0.0768,12.4608 0.0768,11.4432 L0.0768,10.5408 C0.0768,10.272 0.288,10.0608 0.5568,10.0608 L1.4592,10.0608 L1.4592,1.4016 C1.4592,0.7104 2.016,0.1536 2.7072,0.1536 L16.4352,0.1536 C17.1072,0.1536 17.664,0.672 17.7216,1.3632 C17.7408,1.3824 17.7408,1.3824 17.7408,1.4016 Z M17.2608,11.0208 C16.992,11.0208 16.7808,10.8096 16.7808,10.5408 L16.7808,1.44 C16.7616,1.2672 16.608,1.1136 16.4544,1.1136 L2.7072,1.1136 C2.5536,1.1136 2.4192,1.248 2.4192,1.4016 L2.4192,10.5408 C2.4192,10.8096 2.208,11.0208 1.9392,11.0208 L1.0368,11.0208 L1.0368,11.4432 C1.0368,11.9232 1.44,12.3264 1.92,12.3264 L17.28,12.3264 C17.76,12.3264 18.1632,11.9232 18.1632,11.4432 L18.1632,11.0208 L17.2608,11.0208 Z M4.3584,5.9136 C4.2432,5.7408 4.2432,5.5296 4.3584,5.3568 C4.4544,5.2224 6.5472,2.2848 9.6,2.2848 C12.6336,2.2848 14.7456,5.2416 14.8416,5.3568 C14.9568,5.5296 14.9568,5.7408 14.8416,5.9136 C14.7456,6.048 12.6528,8.9856 9.6,8.9856 C6.5664,9.0048 4.4544,6.048 4.3584,5.9136 Z M5.3568,5.6448 C5.9328,6.336 7.5456,8.0448 9.6,8.0448 C11.6544,8.0448 13.2672,6.336 13.8432,5.6448 C13.2672,4.9536 11.6544,3.2448 9.6,3.2448 C7.5648,3.2448 5.9328,4.9536 5.3568,5.6448 Z M7.8528,5.568 C7.8528,4.608 8.64,3.8208 9.6,3.8208 C10.56,3.8208 11.3472,4.608 11.3472,5.568 C11.3472,6.528 10.56,7.296 9.6,7.296 C8.64,7.296 7.8528,6.528 7.8528,5.568 Z M8.8128,5.568 C8.8128,5.9904 9.1584,6.3552 9.6,6.3552 C10.0416,6.3552 10.3872,6.0096 10.3872,5.568 C10.3872,5.1264 10.0416,4.7808 9.6,4.7808 C9.1584,4.7808 8.8128,5.1264 8.8128,5.568 Z" id="Shape" fill="#000000" fill-rule="nonzero"></path>
            </g>
        </g>
    </g>
</svg>