<?xml version="1.0" encoding="UTF-8"?>
<svg width="14px" height="19px" viewBox="0 0 14 19" version="1.1" xmlns="http://www.w3.org/2000/svg" xmlns:xlink="http://www.w3.org/1999/xlink">
    <title>lock</title>
    <defs>
        <filter id="filter-1">
            <feColorMatrix in="SourceGraphic" type="matrix" values="0 0 0 0 0.288656 0 0 0 0 0.564552 0 0 0 0 0.886239 0 0 0 1.000000 0"></feColorMatrix>
        </filter>
    </defs>
    <g id="Page-2" stroke="none" stroke-width="1" fill="none" fill-rule="evenodd">
        <g id="lock" transform="translate(-26.000000, -729.000000)" filter="url(#filter-1)">
            <g transform="translate(26.000000, 729.000000)">
                <path d="M6.9504,0.0384 C3.9744,0.0384 1.5552,2.4576 1.5552,5.4336 L1.5552,7.3152 L1.4208,7.3152 C0.6336,7.3152 3.41060513e-16,7.9488 3.41060513e-16,8.736 L3.41060513e-16,16.5888 C3.41060513e-16,17.376 0.6336,18.0096 1.4208,18.0096 L12.3648,18.0096 C13.152,18.0096 13.7856,17.376 13.7856,16.5888 L13.7856,8.736 C13.7856,7.9488 13.152,7.3152 12.3648,7.3152 L12.3264,7.3152 L12.3264,5.4336 C12.3456,2.4576 9.9264,0.0384 6.9504,0.0384 Z M3.9168,5.4336 C3.9168,3.7632 5.28,2.4 6.9504,2.4 C8.6208,2.4 9.984,3.7632 9.984,5.4336 L9.984,7.3152 L3.9168,7.3152 L3.9168,5.4336 Z M7.1808,14.2848 L6.048,15.4176 L4.9152,14.2848 L3.456,12.8256 L4.5888,11.6928 L6.048,13.152 L9.2352,9.9648 L10.368,11.0976 L7.1808,14.2848 Z" id="Shape" fill="#000000" fill-rule="nonzero"></path>
            </g>
        </g>
    </g>
</svg>