<?xml version="1.0" encoding="UTF-8"?>
<svg width="19px" height="17px" viewBox="0 0 19 17" version="1.1" xmlns="http://www.w3.org/2000/svg" xmlns:xlink="http://www.w3.org/1999/xlink">
    <title>model-ops</title>
    <defs>
        <filter id="filter-1">
            <feColorMatrix in="SourceGraphic" type="matrix" values="0 0 0 0 0.960784 0 0 0 0 0.650980 0 0 0 0 0.137255 0 0 0 1.000000 0"></feColorMatrix>
        </filter>
    </defs>
    <g id="Page-2" stroke="none" stroke-width="1" fill="none" fill-rule="evenodd">
        <g id="model-ops" transform="translate(-23.000000, -194.000000)" filter="url(#filter-1)">
            <g transform="translate(23.000000, 194.000000)">
                <path d="M17.14608,6.94008 C16.48512,6.94008 15.9408,7.3872 15.76584,7.98984 L13.27752,7.98984 L13.27752,6.25968 L14.59944,6.25968 C14.81328,6.25968 14.9688,6.10416 14.9688,5.89032 L14.9688,4.21848 C15.57144,4.06296 16.01856,3.4992 16.01856,2.85768 C16.01856,2.08008 15.37704,1.43856 14.59944,1.43856 C13.82184,1.43856 13.18032,2.08008 13.18032,2.85768 C13.18032,3.51864 13.62744,4.06296 14.23008,4.21848 L14.23008,5.52096 L13.19976,5.52096 C13.00536,4.89888 12.42216,4.43232 11.74176,4.43232 L9.70056,4.43232 L9.70056,2.89656 C10.3032,2.74104 10.75032,2.17728 10.75032,1.51632 C10.75032,0.73872 10.1088,0.0972 9.3312,0.0972 C8.5536,0.0972 7.91208,0.73872 7.91208,1.51632 C7.91208,2.17728 8.3592,2.7216 8.96184,2.89656 L8.96184,4.43232 L6.92064,4.43232 C6.2208,4.43232 5.65704,4.89888 5.46264,5.52096 L4.43232,5.52096 L4.43232,4.21848 C5.03496,4.06296 5.48208,3.4992 5.48208,2.85768 C5.48208,2.08008 4.84056,1.43856 4.06296,1.43856 C3.28536,1.43856 2.64384,2.08008 2.64384,2.85768 C2.64384,3.51864 3.09096,4.06296 3.6936,4.21848 L3.6936,5.89032 C3.6936,6.10416 3.84912,6.25968 4.06296,6.25968 L5.38488,6.25968 L5.38488,7.98984 L2.89656,7.98984 C2.74104,7.3872 2.17728,6.94008 1.51632,6.94008 C0.73872,6.94008 0.0972,7.5816 0.0972,8.3592 C0.0972,9.1368 0.73872,9.77832 1.51632,9.77832 C2.17728,9.77832 2.7216,9.3312 2.89656,8.72856 L5.40432,8.72856 L5.40432,10.45872 L4.0824,10.45872 C3.86856,10.45872 3.71304,10.61424 3.71304,10.82808 L3.71304,12.51936 C3.1104,12.67488 2.66328,13.23864 2.66328,13.8996 C2.66328,14.6772 3.3048,15.31872 4.0824,15.31872 C4.86,15.31872 5.50152,14.6772 5.50152,13.8996 C5.50152,13.23864 5.0544,12.69432 4.45176,12.51936 L4.45176,11.19744 L5.48208,11.19744 C5.67648,11.81952 6.25968,12.28608 6.94008,12.28608 L8.98128,12.28608 L8.98128,13.82184 C8.37864,13.97736 7.93152,14.54112 7.93152,15.20208 C7.93152,15.97968 8.57304,16.6212 9.35064,16.6212 C10.12824,16.6212 10.76976,15.97968 10.76976,15.20208 C10.76976,14.54112 10.32264,13.9968 9.72,13.82184 L9.72,12.28608 L11.7612,12.28608 C12.46104,12.28608 13.0248,11.81952 13.2192,11.19744 L14.24952,11.19744 L14.24952,12.51936 C13.64688,12.67488 13.19976,13.23864 13.19976,13.8996 C13.19976,14.6772 13.84128,15.31872 14.61888,15.31872 C15.39648,15.31872 16.038,14.6772 16.038,13.8996 C16.038,13.23864 15.59088,12.69432 14.98824,12.51936 L14.98824,10.82808 C14.98824,10.61424 14.83272,10.45872 14.61888,10.45872 L13.29696,10.45872 L13.29696,8.72856 L15.80472,8.72856 C15.96024,9.3312 16.524,9.77832 17.18496,9.77832 C17.96256,9.77832 18.60408,9.1368 18.60408,8.3592 C18.60408,7.5816 17.92368,6.94008 17.14608,6.94008 Z M13.91904,2.83824 C13.91904,2.44944 14.23008,2.15784 14.59944,2.15784 C14.98824,2.15784 15.27984,2.46888 15.27984,2.83824 C15.27984,3.2076 14.9688,3.51864 14.59944,3.51864 C14.21064,3.53808 13.91904,3.22704 13.91904,2.83824 Z M8.6508,1.51632 C8.6508,1.14696 8.96184,0.83592 9.3312,0.83592 C9.72,0.83592 10.0116,1.14696 10.0116,1.51632 C10.0116,1.90512 9.70056,2.19672 9.3312,2.19672 C8.9424,2.19672 8.6508,1.90512 8.6508,1.51632 Z M3.38256,2.83824 C3.38256,2.44944 3.6936,2.15784 4.06296,2.15784 C4.45176,2.15784 4.74336,2.46888 4.74336,2.83824 C4.74336,3.2076 4.43232,3.51864 4.06296,3.51864 C3.67416,3.53808 3.38256,3.22704 3.38256,2.83824 Z M1.51632,9.0396 C1.14696,9.0396 0.83592,8.72856 0.83592,8.3592 C0.83592,7.9704 1.14696,7.6788 1.51632,7.6788 C1.90512,7.6788 2.19672,7.98984 2.19672,8.3592 C2.21616,8.748 1.90512,9.0396 1.51632,9.0396 Z M4.74336,13.8996 C4.74336,14.26896 4.43232,14.58 4.06296,14.58 C3.67416,14.58 3.38256,14.26896 3.38256,13.8996 C3.38256,13.5108 3.6936,13.2192 4.06296,13.2192 C4.45176,13.2192 4.74336,13.53024 4.74336,13.8996 Z M10.0116,15.20208 C10.0116,15.57144 9.70056,15.88248 9.3312,15.88248 C8.9424,15.88248 8.6508,15.57144 8.6508,15.20208 C8.6508,14.81328 8.96184,14.52168 9.3312,14.52168 C9.72,14.52168 10.0116,14.81328 10.0116,15.20208 Z M15.27984,13.8996 C15.27984,14.26896 14.9688,14.58 14.59944,14.58 C14.21064,14.58 13.91904,14.26896 13.91904,13.8996 C13.91904,13.5108 14.23008,13.2192 14.59944,13.2192 C14.98824,13.2192 15.27984,13.53024 15.27984,13.8996 Z M12.5388,10.76976 C12.5388,11.19744 12.18888,11.5668 11.74176,11.5668 L6.92064,11.5668 C6.49296,11.5668 6.1236,11.21688 6.1236,10.76976 L6.1236,5.94864 C6.1236,5.52096 6.47352,5.1516 6.92064,5.1516 L11.74176,5.1516 C12.16944,5.1516 12.5388,5.50152 12.5388,5.94864 L12.5388,10.76976 Z M17.14608,9.0396 C16.75728,9.0396 16.46568,8.72856 16.46568,8.3592 C16.46568,7.9704 16.77672,7.6788 17.14608,7.6788 C17.53488,7.6788 17.82648,7.98984 17.82648,8.3592 C17.82648,8.748 17.51544,9.0396 17.14608,9.0396 Z" id="Shape" fill="#000000" fill-rule="nonzero"></path>
                <path d="M11.58624,7.91208 L10.9836,7.85376 C10.96416,7.85376 10.94472,7.83432 10.94472,7.81488 C10.92528,7.73712 10.8864,7.6788 10.86696,7.62048 C10.84752,7.60104 10.86696,7.5816 10.86696,7.56216 L11.25576,7.0956 C11.31408,7.01784 11.31408,6.9012 11.23632,6.84288 L10.86696,6.47352 C10.7892,6.39576 10.692,6.39576 10.61424,6.45408 L10.14768,6.84288 C10.12824,6.86232 10.1088,6.86232 10.08936,6.84288 C10.03104,6.804 9.95328,6.78456 9.89496,6.76512 C9.87552,6.76512 9.85608,6.74568 9.85608,6.72624 L9.79776,6.1236 C9.77832,6.0264 9.70056,5.94864 9.60336,5.94864 L9.07848,5.94864 C8.98128,5.94864 8.90352,6.0264 8.88408,6.1236 L8.82576,6.72624 C8.82576,6.74568 8.80632,6.76512 8.78688,6.76512 C8.70912,6.78456 8.6508,6.82344 8.59248,6.84288 C8.57304,6.86232 8.5536,6.84288 8.53416,6.84288 L8.0676,6.45408 C7.98984,6.39576 7.8732,6.39576 7.81488,6.47352 L7.44552,6.84288 C7.36776,6.92064 7.36776,7.01784 7.42608,7.0956 L7.81488,7.56216 C7.83432,7.5816 7.83432,7.60104 7.81488,7.62048 C7.776,7.6788 7.75656,7.75656 7.73712,7.81488 C7.73712,7.83432 7.71768,7.85376 7.69824,7.85376 L7.0956,7.91208 C6.9984,7.93152 6.92064,8.00928 6.92064,8.10648 L6.92064,8.63136 C6.92064,8.72856 6.9984,8.80632 7.0956,8.82576 L7.69824,8.88408 C7.71768,8.88408 7.73712,8.90352 7.73712,8.92296 C7.75656,9.00072 7.79544,9.05904 7.81488,9.11736 C7.83432,9.1368 7.81488,9.15624 7.81488,9.17568 L7.42608,9.64224 C7.36776,9.72 7.36776,9.83664 7.44552,9.89496 L7.81488,10.26432 C7.89264,10.34208 7.98984,10.34208 8.0676,10.28376 L8.53416,9.89496 C8.5536,9.87552 8.57304,9.87552 8.59248,9.89496 C8.6508,9.93384 8.72856,9.95328 8.78688,9.97272 C8.80632,9.97272 8.82576,9.99216 8.82576,10.0116 L8.88408,10.61424 C8.90352,10.71144 8.98128,10.7892 9.07848,10.7892 L9.60336,10.7892 C9.70056,10.7892 9.77832,10.71144 9.79776,10.61424 L9.85608,10.0116 C9.85608,9.99216 9.87552,9.97272 9.89496,9.97272 C9.97272,9.95328 10.03104,9.9144 10.08936,9.89496 C10.1088,9.87552 10.12824,9.89496 10.14768,9.89496 L10.61424,10.28376 C10.692,10.34208 10.80864,10.34208 10.86696,10.26432 L11.23632,9.89496 C11.31408,9.8172 11.31408,9.72 11.25576,9.64224 L10.86696,9.17568 C10.84752,9.15624 10.84752,9.1368 10.86696,9.11736 C10.90584,9.05904 10.92528,8.98128 10.94472,8.92296 C10.94472,8.90352 10.96416,8.88408 10.9836,8.88408 L11.58624,8.82576 C11.68344,8.80632 11.7612,8.72856 11.7612,8.63136 L11.7612,8.10648 C11.7612,8.00928 11.68344,7.91208 11.58624,7.91208 Z M9.3312,9.21456 C8.86464,9.21456 8.47584,8.82576 8.47584,8.3592 C8.47584,7.89264 8.86464,7.50384 9.3312,7.50384 C9.79776,7.50384 10.18656,7.89264 10.18656,8.3592 C10.18656,8.82576 9.79776,9.21456 9.3312,9.21456 Z" id="Shape" fill="#000000" fill-rule="nonzero"></path>
            </g>
        </g>
    </g>
</svg>