<?xml version="1.0" encoding="UTF-8"?>
<svg width="19px" height="15px" viewBox="0 0 19 15" version="1.1" xmlns="http://www.w3.org/2000/svg" xmlns:xlink="http://www.w3.org/1999/xlink">
    <title>users</title>
    <defs>
        <filter id="filter-1">
            <feColorMatrix in="SourceGraphic" type="matrix" values="0 0 0 0 0.314369 0 0 0 0 0.888376 0 0 0 0 0.759900 0 0 0 1.000000 0"></feColorMatrix>
        </filter>
    </defs>
    <g id="Page-2" stroke="none" stroke-width="1" fill="none" fill-rule="evenodd">
        <g id="users" transform="translate(-24.000000, -689.000000)" filter="url(#filter-1)">
            <g transform="translate(24.000000, 689.000000)">
                <path d="M5.591772,0.005112 C3.736656,0.005112 2.227428,1.605312 2.227428,3.572208 C2.227428,5.539104 3.736656,7.139304 5.591772,7.139304 C7.446888,7.139304 8.956152,5.539104 8.956152,3.572208 C8.956152,1.605312 7.446924,0.005112 5.591772,0.005112 Z" id="Path" fill="#000000" fill-rule="nonzero"></path>
                <path d="M13.240728,0.515556 C13.233132,0.515556 13.225428,0.515556 13.217832,0.515628 C12.439296,0.522072 11.712096,0.850788 11.170224,1.441296 C10.637856,2.021364 10.34838,2.786616 10.35504,3.59604 C10.361736,4.405464 10.663812,5.16582 11.205648,5.737068 C11.751768,6.312744 12.475188,6.628896 13.245084,6.628896 C13.252824,6.628896 13.260564,6.628896 13.26834,6.628824 C14.046876,6.62238 14.774076,6.293628 15.315948,5.703156 C15.848316,5.123088 16.137792,4.357836 16.131132,3.548376 C16.117272,1.870992 14.822892,0.515556 13.240728,0.515556 Z" id="Path" fill="#000000" fill-rule="nonzero"></path>
                <path d="M13.38264,7.212888 L13.10328,7.212888 C11.80224,7.212888 10.61496,7.707528 9.71856,8.518248 C9.94284,8.690328 10.15632,8.877888 10.35864,9.080208 C10.95552,9.677088 11.42424,10.372608 11.75184,11.147328 C12.04704,11.845008 12.21552,12.580128 12.25476,13.337208 L18.432,13.337208 L18.432,12.261888 C18.432,9.478008 16.16688,7.212888 13.38264,7.212888 Z" id="Path" fill="#000000" fill-rule="nonzero"></path>
                <path d="M11.1726,13.337208 C11.07072,11.695968 10.23876,10.252368 8.99712,9.327168 C8.09388,8.653968 6.97356,8.255448 5.76,8.255448 L5.42376,8.255448 C2.4282,8.255448 0,10.683648 0,13.679208 L0,14.322888 L11.1834,14.322888 L11.1834,13.679208 C11.1834,13.564368 11.1798,13.450248 11.1726,13.337208 Z" id="Path" fill="#000000" fill-rule="nonzero"></path>
            </g>
        </g>
    </g>
</svg>