<?xml version="1.0" encoding="UTF-8"?>
<svg width="25px" height="25px" viewBox="0 0 25 25" version="1.1" xmlns="http://www.w3.org/2000/svg" xmlns:xlink="http://www.w3.org/1999/xlink">
    <title>entitlements</title>
    <defs>
        <filter id="filter-1">
            <feColorMatrix in="SourceGraphic" type="matrix" values="0 0 0 0 0.007843 0 0 0 0 0.729412 0 0 0 0 0.129412 0 0 0 1.000000 0"></feColorMatrix>
        </filter>
    </defs>
    <g id="Page-2" stroke="none" stroke-width="1" fill="none" fill-rule="evenodd">
        <g id="entitlements" transform="translate(-432.000000, -372.000000)" filter="url(#filter-1)">
            <g transform="translate(432.000000, 372.000000)">
                <path d="M12,0 C16.36875,0 17.5875,3.45625 17.475,4.76875 C17.38125,5.83125 17.33125,6.29375 17.28125,6.8125 C17.23125,7.33125 17.65,7.4125 17.4,8.5 C17.1442308,9.61730769 16.9754438,9.8829142 16.8399721,10.0920659 L16.7837961,10.1805644 C16.7054423,10.3096148 16.6368439,10.4604029 16.5654123,10.8194703 C15.6865705,11.8148926 15.2019923,13.0748985 15.1496322,14.3696469 C15.1101476,14.5340277 15.0875,14.7412128 15.0875,15.01875 C15.0875,15.2458777 15.0857345,15.4485599 15.0849389,15.6302063 L15.0848149,15.8873252 C15.0855702,16.0294292 15.0881362,16.1565597 15.0943776,16.2710413 L8.47290872,22.4393867 L8.43845013,22.4731466 L8.3885704,22.527146 C8.19408088,22.7484654 8.06141278,23.0327999 8.04344434,23.3495539 L8.04344434,23.3495539 L8,24 L0,24 L0,24 L0.00048515625,23.8968727 C0.003234375,23.5228594 0.0215625,22.2215625 0.14375,21.49375 C0.25,20.8125 1.2,19.90625 5.2125,18.4375 C5.71675532,18.2531915 6.15266523,18.1039215 6.5294618,17.9781823 L6.88689585,17.8598607 C8.74816984,17.2475431 8.91435502,17.2310011 8.9214351,15.8956633 L8.92131109,15.6379162 C8.9205155,15.4558284 8.91875,15.2526596 8.91875,15.025 C8.91875,13.29375 8.0375,14.3 7.475,11.0125 C7.25625,9.7125 7.08125,10.575 6.60625,8.50625 C6.35625,7.41875 6.775,7.3375 6.725,6.81875 L6.725,6.81875 L6.70176377,6.58055587 C6.65857988,6.14186391 6.61057692,5.66875 6.53125,4.775 C6.4125,3.45625 7.63125,0 12,0 Z M16.4515869,17.6288605 C16.472248,17.6359127 16.4932197,17.6430356 16.5145065,17.6502352 L16.7992774,17.7452784 C16.8999714,17.7785909 17.0065497,17.8136768 17.1193542,17.8509624 L17.4767882,17.9698443 C17.7333079,18.0558508 18.0172252,18.1528106 18.3314532,18.2643546 L17.3568,19.15744 L16.39229,19.1293789 L16.3233168,19.1296021 C15.6377577,19.1478583 15.0813357,19.6436232 15.0084709,20.329923 L15.0084709,20.329923 L15.0046639,20.3766011 L14.9984,20.48 L14.9834392,20.5007417 L14.9412597,20.5635319 C14.7528256,20.8610005 14.6825036,21.21893 14.7497749,21.5614723 L14.7497749,21.5614723 L14.75168,21.56992 L14.61728,21.6944 L14.5939209,21.6903897 L14.5234473,21.6823753 C14.1691882,21.6520188 13.789417,21.7674671 13.512331,22.0320009 L13.512331,22.0320009 L13.47872,22.06592 L13.1936,22.32928 L12.8660074,22.3568301 L12.7897111,22.3640668 C12.5610011,22.3937532 12.3351623,22.4946942 12.1461867,22.65251 L12.1461867,22.65251 L12.1051768,22.6887924 L11.91648,22.86528 L11.9091796,22.8714468 L11.8543755,22.922743 C11.5538654,23.2211209 11.4246196,23.6477824 11.490644,24.0699361 L11.483,24 L9.924,24 L9.94464,23.69216 Z M19.13472,20.13248 L19.2220211,20.1609447 L19.3425064,20.1973198 C20.4389177,20.515583 21.5982692,20.5062771 22.6746877,20.1839021 C23.5154613,20.7121841 23.803458,21.1299676 23.8625,21.4875 C23.979375,22.220625 23.9969062,23.5227187 23.9995359,23.8968516 L23.9999828,23.9879297 L23.9999828,23.9879297 L24,24 L14.1902073,24.0017423 C14.2435251,23.9648726 14.2945203,23.9245317 14.3432403,23.8815433 L14.3432403,23.8815433 L14.57152,23.6704 L14.6140221,23.676756 L14.6888882,23.6833709 C15.0391116,23.7035512 15.3988789,23.574985 15.67042,23.335389 L15.67042,23.335389 L16.3551715,22.7024395 L16.3921916,22.6663018 L16.4372095,22.6178833 L16.4867467,22.5593409 C16.7581988,22.2215798 16.8708342,21.7837304 16.7523503,21.3611966 L16.7523503,21.3611966 L16.74816,21.34816 L16.782548,21.2795301 C16.8136746,21.2116703 16.8387936,21.1415548 16.8581121,21.0699238 L16.8581121,21.0699238 L16.85952,21.06368 L17.4704,21.08128 L17.5459842,21.086403 C17.8888217,21.0981111 18.2170089,20.9753068 18.4621161,20.7498766 L18.4621161,20.7498766 L18.47776,20.73472 L19.13472,20.13248 Z" id="Combined-Shape" fill="#000000" fill-rule="nonzero"></path>
                <path d="M23.7620226,11.944539 C25.4357471,13.7030573 25.3425162,16.4329889 23.5648698,18.0653222 C22.2209389,19.2777286 20.295947,19.5150997 18.7169887,18.7995846 L17.7184937,19.7027746 C17.6604943,19.7617343 17.5672428,19.8006112 17.458926,19.7849049 L16.3957954,19.7542583 C16.1997632,19.7503948 16.0523253,19.8752908 16.0324282,20.0602112 L16.0173693,20.3206849 C16.0122479,20.4097687 15.9794071,20.5060615 15.8936883,20.5722301 C15.7776894,20.6901495 15.7498206,20.8582759 15.8152033,20.9875253 L15.875614,21.0449411 C15.9586227,21.1842318 15.9131279,21.3423168 15.7971291,21.4602362 L15.191976,22.0125004 C15.0961638,22.0959193 14.957567,22.1319637 14.8417175,22.0889657 L14.7434941,22.0560091 C14.6276446,22.0130111 14.4714218,22.0390142 14.3932356,22.1324745 L13.9898003,22.5006506 C13.9418942,22.54236 13.8662687,22.5912784 13.793204,22.5956548 L13.2993767,22.636331 C13.2384894,22.639978 13.1828331,22.6625776 13.1324078,22.7041297 L12.9489688,22.8737138 C12.86325,22.9398824 12.8203158,23.0534255 12.8403531,23.1798424 L12.9455116,23.8837604 C12.9479228,24.0001359 12.9327081,24.1064701 12.8368959,24.189889 L12.0880247,24.8672815 C12.0300252,24.9262412 11.9367738,24.9651181 11.846083,24.9594532 L9.95408129,24.939614 C9.74498037,24.935493 9.58137425,24.773287 9.60171038,24.577869 L9.7268855,22.7171493 C9.73200688,22.6280655 9.78247366,22.5418141 9.84047309,22.4828544 L16.4518112,16.4051161 C15.8335352,14.8108702 16.205624,12.9298124 17.549555,11.717406 C19.3272014,10.0850727 22.1059241,10.196062 23.7620226,11.944539 Z M20.778125,13.0276843 C20.2788774,13.4792793 20.2529717,14.2465334 20.7160707,14.7403604 C21.1791697,15.2341873 21.9601346,15.2650892 22.4593821,14.8134942 C22.9586297,14.3618992 22.9845354,13.594645 22.5214364,13.1008181 C22.0583375,12.6069912 21.2773725,12.5760893 20.778125,13.0276843 Z" id="Shape" fill="#000000" fill-rule="nonzero"></path>
            </g>
        </g>
    </g>
</svg>