<?xml version="1.0" encoding="UTF-8"?>
<svg width="23px" height="22px" viewBox="0 0 23 22" version="1.1" xmlns="http://www.w3.org/2000/svg" xmlns:xlink="http://www.w3.org/1999/xlink">
    <title>events</title>
    <g id="Page-2" stroke="none" stroke-width="1" fill="none" fill-rule="evenodd">
        <g id="NEW-Dashboard-21Oct" transform="translate(-240.000000, -277.000000)" fill="#50E3C2">
            <path d="M245.599484,280.167315 C245.785052,280.167315 245.935484,280.317747 245.935484,280.503315 L245.935484,298.664 C245.935484,298.849568 245.785052,299 245.599484,299 L240.336,299 C240.150432,299 240,298.849568 240,298.664 L240,280.503315 C240,280.317747 240.150432,280.167315 240.336,280.167315 L245.599484,280.167315 Z M254.131742,284.789883 C254.31731,284.789883 254.467742,284.940316 254.467742,285.125883 L254.467742,298.664 C254.467742,298.849568 254.31731,299 254.131742,299 L248.868258,299 C248.68269,299 248.532258,298.849568 248.532258,298.664 L248.532258,285.125883 C248.532258,284.940316 248.68269,284.789883 248.868258,284.789883 L254.131742,284.789883 Z M262.664,277 C262.849568,277 263,277.150432 263,277.336 L263,298.664 C263,298.849568 262.849568,299 262.664,299 L257.400516,299 C257.214948,299 257.064516,298.849568 257.064516,298.664 L257.064516,277.336 C257.064516,277.150432 257.214948,277 257.400516,277 L262.664,277 Z" id="events"></path>
        </g>
    </g>
</svg>