<?xml version="1.0" encoding="UTF-8"?>
<svg width="30px" height="26px" viewBox="0 0 30 26" version="1.1" xmlns="http://www.w3.org/2000/svg" xmlns:xlink="http://www.w3.org/1999/xlink">
    <title>resources</title>
    <g id="Page-2" stroke="none" stroke-width="1" fill="none" fill-rule="evenodd" stroke-linecap="round" stroke-linejoin="round">
        <g id="NEW-Dashboard-21Oct" transform="translate(-235.000000, -373.000000)" stroke="#FF5A5A" stroke-width="1.2012">
            <path d="M251.910696,389.988258 L251.910696,393.770315 L254.238957,393.770315 L250,398 L245.761043,393.770315 L248.089304,393.770315 L248.089304,389.988258 L251.910696,389.988258 Z M240.238957,378.592889 L240.238957,380.916665 L244.029304,380.916665 L244.029304,384.729698 L240.238957,384.729698 L240.238957,387.052259 L236,382.823181 L240.238957,378.592889 Z M259.761043,378.592889 L264,382.823181 L259.761043,387.052259 L259.761043,384.729698 L255.971304,384.729698 L255.971304,380.916665 L259.761043,380.916665 L259.761043,378.592889 Z M250,380.592332 C252.036696,380.592332 253.702087,382.280805 253.702087,384.343414 L253.702087,384.343414 L253.702087,386.837252 L246.297913,386.837252 L246.297913,384.343414 C246.297913,382.280805 247.963913,380.592332 250,380.592332 Z M249.984174,374 C251.220619,374 252.222957,375.000145 252.222957,376.233886 C252.222957,377.467627 251.220619,378.467772 249.984174,378.467772 C248.747728,378.467772 247.745391,377.467627 247.745391,376.233886 C247.745391,375.000145 248.747728,374 249.984174,374 Z" id="resources"></path>
        </g>
    </g>
</svg>