<?xml version="1.0" encoding="UTF-8"?>
<svg width="21px" height="24px" viewBox="0 0 21 24" version="1.1" xmlns="http://www.w3.org/2000/svg" xmlns:xlink="http://www.w3.org/1999/xlink">
    <title>riskyusers</title>
    <defs>
        <filter id="filter-1">
            <feColorMatrix in="SourceGraphic" type="matrix" values="0 0 0 0 1.000000 0 0 0 0 0.352941 0 0 0 0 0.352941 0 0 0 1.000000 0"></feColorMatrix>
        </filter>
    </defs>
    <g id="Page-2" stroke="none" stroke-width="1" fill="none" fill-rule="evenodd">
        <g id="riskyusers" transform="translate(-638.000000, -276.000000)" filter="url(#filter-1)">
            <g transform="translate(638.000000, 276.000000)">
                <path d="M0.0734545455,23.3963636 L20.0581818,23.3963636 C20.0581818,18.0923636 16.2341818,17.5978182 16.2341818,17.5978182 C18.4952727,16.632 19.5898182,17.9650909 18.7396364,16.5905455 C17.8530909,15.1563636 16.0167273,14.1287273 15.72,14.5963636 C14.3381818,16.7752727 12.4538182,17.5738182 11.1767273,17.8465455 L11.0290909,18.2625455 L10.0669091,20.9832727 L9.104,18.2625455 L8.95636364,17.8465455 C7.67927273,17.5738182 5.79490909,16.7752727 4.41309091,14.5963636 C4.11709091,14.1287273 2.28,15.1570909 1.39345455,16.5905455 C0.543272727,17.9650909 1.63781818,16.632 3.89818182,17.5978182 C3.89745455,17.5978182 0.0734545455,18.0923636 0.0734545455,23.3963636 Z" id="Path" fill="#000000" fill-rule="nonzero"></path>
                <path d="M15.7832727,5.76 C15.7832727,2.18181818 14.5970909,-0.694545455 12.4058182,0.335272727 C11.84,0.601454545 10.5941818,0.805090909 10.0654545,0.805090909 C9.536,0.805090909 8.29163636,0.602181818 7.72436364,0.335272727 C5.53454545,-0.694545455 4.34763636,2.18181818 4.34763636,5.76 C4.34763636,5.76 1.39272727,6.24436364 1.39272727,7.76581818 C1.39272727,9.77163636 6.61090909,9.74474565 10.0669091,9.74474565 C13.5229091,9.74474565 18.7403636,9.77163636 18.7403636,7.76581818 C18.7396364,6.24436364 15.7832727,5.76 15.7832727,5.76 Z" id="Path" fill="#000000" fill-rule="nonzero"></path>
                <path d="M16.232,9.98181818 C14.3243636,10.2443636 11.9563636,10.2378182 10.0654545,10.2378182 C8.17454545,10.2378182 5.80654545,10.2450909 3.89890909,9.98181818 C3.89890909,9.99854545 3.896,10.0152727 3.896,10.0327273 C3.896,14.0290909 6.65818182,17.2698182 10.0647273,17.2698182 C13.4712727,17.2698182 16.232,14.0290909 16.232,10.0327273 C16.2334545,10.0152727 16.232,9.99854545 16.232,9.98181818 Z M8.77381818,11.6836364 C8.77381818,11.9410909 8.56509091,12.1505455 8.30618182,12.1505455 L6.55636364,12.1505455 C6.29890909,12.1505455 6.09018182,11.9418182 6.09018182,11.6836364 L6.09018182,11.2749091 C6.09018182,11.0174545 6.29890909,10.808 6.55636364,10.808 L8.30618182,10.808 C8.56436364,10.808 8.77381818,11.0167273 8.77381818,11.2749091 L8.77381818,11.6836364 Z M14.0421818,11.6836364 C14.0421818,11.9410909 13.8334545,12.1505455 13.5745455,12.1505455 L11.8247273,12.1505455 C11.5672727,12.1505455 11.3585455,11.9418182 11.3585455,11.6836364 L11.3585455,11.2749091 C11.3585455,11.0174545 11.5672727,10.808 11.8247273,10.808 L13.5745455,10.808 C13.8327273,10.808 14.0421818,11.0167273 14.0421818,11.2749091 L14.0421818,11.6836364 L14.0421818,11.6836364 Z" id="Shape" fill="#000000" fill-rule="nonzero"></path>
            </g>
        </g>
    </g>
</svg>