<?xml version="1.0" encoding="UTF-8"?>
<svg width="27px" height="26px" viewBox="0 0 27 26" version="1.1" xmlns="http://www.w3.org/2000/svg" xmlns:xlink="http://www.w3.org/1999/xlink">
    <title>RiskyURLS</title>
    <g id="Page-2" stroke="none" stroke-width="1" fill="none" fill-rule="evenodd">
        <g id="NEW-Dashboard-21Oct" transform="translate(-1190.000000, -276.000000)" fill-rule="nonzero">
            <g id="RiskyURLS" transform="translate(1190.000000, 276.000000)">
                <path d="M11.7504,18.8576 L11.34,17.6912 C11.0376,18.188 10.692,18.6416 10.3248,19.0736 C10.3032,19.1168 10.26,19.1384 10.2384,19.1816 C10.0872,19.1816 9.936,19.2032 9.7848,19.2032 C9.6336,19.2032 9.4824,19.2032 9.3312,19.2032 C9.3096,19.16 9.2664,19.1384 9.2448,19.0952 C8.3592,18.08 7.6248,16.8488 7.128,15.4664 C7.992,15.2936 8.8776,15.2072 9.8064,15.2072 C10.044,15.2072 10.2816,15.2072 10.5192,15.2288 L10.1088,14.0192 C10.0224,14.0192 9.9144,14.0192 9.828,14.0192 C8.7696,14.0192 7.7544,14.1272 6.7824,14.3216 C6.5232,13.3496 6.3504,12.3128 6.3072,11.2112 L9.1368,11.2112 L8.9424,10.6496 C8.8776,10.4552 8.8344,10.2392 8.8344,10.0232 L6.264,10.0232 C6.3072,8.9432 6.4584,7.9064 6.7392,6.9128 C7.7112,7.1072 8.7264,7.2152 9.7848,7.2152 C10.8216,7.2152 11.8584,7.1072 12.8304,6.9128 C13.0248,7.604 13.1544,8.3384 13.2408,9.0944 L14.472,9.5264 C14.4072,8.5328 14.2344,7.5608 13.9968,6.632 C14.9256,6.3728 15.8112,6.0056 16.632,5.5736 C16.6536,5.552 16.6968,5.552 16.7184,5.5304 C17.6472,6.8048 18.252,8.3384 18.36,10.0232 L15.9192,10.0232 L19.3968,11.2328 C19.44,11.2544 19.5048,11.276 19.548,11.2976 C19.5696,11.0816 19.5696,10.844 19.5696,10.6064 C19.5696,5.2064 15.1848,0.8216 9.7848,0.8216 C4.4064,0.8216 0,5.2064 0,10.6064 C0,15.9848 4.3848,20.3696 9.7848,20.3696 C10.8216,20.3696 11.8368,20.1968 12.7656,19.8944 C12.312,19.7216 11.9232,19.3328 11.7504,18.8576 Z M15.8976,4.6016 C15.876,4.6232 15.8328,4.6448 15.8112,4.6448 C15.12,4.9904 14.3856,5.2712 13.608,5.4872 C13.1976,4.364 12.6792,3.3488 12.0312,2.4416 C12.0096,2.3984 11.9664,2.3552 11.9448,2.312 C13.4784,2.7008 14.8176,3.5216 15.8976,4.6016 Z M9.3312,2.0528 C9.4824,2.0528 9.6336,2.0312 9.7848,2.0312 C9.936,2.0312 10.0872,2.0312 10.2384,2.0528 C10.26,2.0744 10.3032,2.1176 10.3248,2.1608 C11.2104,3.176 11.9448,4.4072 12.4416,5.7896 C11.5776,5.9624 10.692,6.0488 9.7632,6.0488 C8.8344,6.0488 7.9488,5.9624 7.0848,5.7896 C7.6032,4.4072 8.316,3.176 9.2016,2.1608 C9.2664,2.1176 9.288,2.0744 9.3312,2.0528 Z M7.6032,2.312 C7.5816,2.3552 7.5384,2.3984 7.5168,2.4416 C6.8688,3.3488 6.3504,4.3856 5.94,5.5088 C5.1624,5.2928 4.428,5.012 3.7368,4.6664 C3.7152,4.6448 3.672,4.6448 3.6504,4.6232 C4.7304,3.5216 6.0912,2.7008 7.6032,2.312 Z M2.8728,5.5304 C2.8944,5.552 2.9376,5.552 2.9592,5.5736 C3.78,6.0056 4.6656,6.3512 5.5944,6.632 C5.3136,7.712 5.1192,8.8352 5.0976,10.0232 L1.2312,10.0232 C1.3392,8.3384 1.944,6.8048 2.8728,5.5304 Z M2.8728,15.6824 C1.944,14.408 1.3392,12.8744 1.2312,11.2112 L5.0976,11.2112 C5.1408,12.3776 5.3136,13.5224 5.5944,14.6024 C4.6656,14.8616 3.78,15.2288 2.9592,15.6608 C2.916,15.6392 2.8944,15.6608 2.8728,15.6824 Z M3.6504,16.6112 C3.672,16.5896 3.7152,16.5896 3.7368,16.568 C4.428,16.2224 5.1624,15.9416 5.94,15.7256 C6.3504,16.8488 6.8688,17.864 7.5168,18.7928 C7.5384,18.836 7.5816,18.8792 7.6032,18.9224 C6.0912,18.4904 4.7304,17.6912 3.6504,16.6112 Z" id="Shape" fill="#F5A623"></path>
                <path d="M21.0384,18.296 L17.0208,14.2784 L18.9864,13.2848 C19.3104,13.112 19.2888,12.6368 18.9432,12.5072 L10.7352,9.656 C10.4112,9.548 10.0872,9.8504 10.1952,10.196 L13.0464,18.404 C13.176,18.7496 13.6512,18.7928 13.824,18.4472 L14.8176,16.4816 L18.8352,20.4992 C19.008,20.672 19.2672,20.672 19.4184,20.4992 L21.0384,18.8792 C21.2112,18.728 21.2112,18.4688 21.0384,18.296 Z" id="Path" fill="#F5A623"></path>
                <path d="M17.4400735,9.311524 C17.896913,9.311524 18.3407137,9.50959647 18.6251521,9.86912822 L18.7138618,9.99490188 L26.0119077,23.2642579 C25.7693071,25.1734578 25.2788938,25.2398343 24.8467704,25.2089265 L24.7443367,25.2005345 L24.669546,25.1950147 L24.669546,25.1950147 L24.59694,25.192672 L10.28306,25.192672 C9.60119278,25.192672 9.11692223,24.7873776 8.85909322,24.1908429 L8.80362702,24.0498836 L16.1613803,10.0035569 C16.4346344,9.55940223 16.928951,9.311524 17.4400735,9.311524 Z M15.989,16.389 L12.7426507,22.291036 L16.103,22.291 L16.0870047,22.2748484 C15.8221549,21.9612282 15.664116,21.5603403 15.664116,21.139464 C15.664116,20.677228 15.854898,20.2389081 16.1685548,19.9139235 C16.0779101,19.7496195 16.0170794,19.5594456 15.9967653,19.3467093 L15.98928,19.1875 L15.989,16.389 Z M18.89,16.391 L18.8907199,19.1877056 C18.8905804,19.465569 18.8240583,19.7094841 18.7107559,19.9147079 L18.688747,19.8907446 C19.0158457,20.2178433 19.215884,20.6660167 19.215884,21.139464 C19.215884,21.5680241 19.0518879,21.976026 18.7780161,22.2922049 L22.1373493,22.291036 L18.89,16.391 Z M17.44,13.7549796 L17.0050428,14.5430305 C17.1387617,14.5046769 17.2840231,14.483768 17.44,14.483768 C17.5955362,14.483768 17.7404398,14.5045719 17.8738785,14.5427462 L17.44,13.7549796 Z" id="Combined-Shape" stroke="#0D1726" stroke-width="1.6" fill="#FF2422"></path>
            </g>
        </g>
    </g>
</svg>