<?xml version="1.0" encoding="UTF-8"?>
<svg width="37px" height="23px" viewBox="0 0 37 23" version="1.1" xmlns="http://www.w3.org/2000/svg" xmlns:xlink="http://www.w3.org/1999/xlink">
    <title>RiskyHost</title>
    <g id="Page-2" stroke="none" stroke-width="1" fill="none" fill-rule="evenodd">
        <g id="NEW-Dashboard-21Oct" transform="translate(-1000.000000, -238.000000)" fill-rule="nonzero">
            <g id="RiskyHost" transform="translate(1000.000000, 238.000000)">
                <path d="M29.568,17.688 L29.568,18.81 C29.568,19.635 28.875,20.328 28.05,20.328 L1.65,20.328 C0.825,20.328 0.132,19.635 0.132,18.81 L0.132,17.688 L29.568,17.688 Z M25.047,0.033 C26.532,0.033 27.753,1.254 27.753,2.739 L27.753,14.19 C27.753,15.675 26.532,16.896 25.047,16.896 L4.818,16.896 C3.333,16.896 2.112,15.675 2.112,14.19 L2.112,2.739 C2.112,1.254 3.333,0.033 4.818,0.033 L25.047,0.033 Z M24.849,2.178 L4.851,2.178 C4.521,2.178 4.29,2.442 4.29,2.739 L4.29,14.058 C4.29,14.388 4.554,14.619 4.851,14.619 L24.849,14.619 C25.179,14.652 25.41,14.388 25.41,14.058 L25.41,2.739 C25.41,2.409 25.179,2.178 24.849,2.178 Z M15.477,4.785 L16.863,5.346 L14.256,12.045 L12.87,11.517 L15.477,4.785 Z M10.89,5.115 L12.012,6.105 L9.834,8.514 L12.012,10.692 L10.956,11.748 L7.755,8.58 L10.89,5.115 Z M18.777,5.115 L21.945,8.283 L18.81,11.748 L17.721,10.725 L19.866,8.316 L17.721,6.171 L18.777,5.115 Z" id="Combined-Shape" fill="#136FD5"></path>
                <path d="M27.4400735,5.261524 C27.9127525,5.261524 28.3715475,5.4671497 28.6653754,5.83938801 L28.757001,5.96958477 L36.063616,19.2545214 C35.811416,21.2532797 35.2946237,21.2978147 34.8459007,21.260184 L34.743709,21.2508935 L34.6691977,21.2450869 L34.6691977,21.2450869 L34.59694,21.242672 L20.28306,21.242672 C19.5697846,21.242672 19.0654223,20.8138595 18.8017746,20.1843469 L18.7489746,20.0464626 L26.1178801,5.97884563 C26.4000343,5.51897052 26.9111076,5.261524 27.4400735,5.261524 Z M25.939,12.584 L22.8272362,18.241036 L25.9970184,18.2429824 C25.7559964,17.9307954 25.614116,17.5440629 25.614116,17.139464 C25.614116,16.6763997 25.8001127,16.2365474 26.1079971,15.9051592 C26.0234611,15.7441458 25.9667953,15.5584475 25.9470444,15.3521832 L25.93928,15.1875 L25.939,12.584 Z M28.94,12.586 L28.9407199,15.1877307 C28.9405831,15.4602653 28.8785301,15.7011178 28.7720873,15.9062189 L28.7241023,15.8553893 C29.0604622,16.1917492 29.265884,16.6526866 29.265884,17.139464 C29.265884,17.5439105 29.1239963,17.9306496 28.8829357,18.2428794 L32.0527638,18.241036 L28.94,12.586 Z M27.44,9.85868888 L27.1044081,10.4671054 C27.210115,10.4453532 27.3220872,10.433768 27.44,10.433768 C27.5574844,10.433768 27.6690837,10.4452762 27.7744718,10.4668905 L27.44,9.85868888 Z" id="Combined-Shape" stroke="#0D1726" stroke-width="1.7" fill="#FF2422"></path>
            </g>
        </g>
    </g>
</svg>