<?xml version="1.0" encoding="UTF-8"?>
<svg width="25px" height="26px" viewBox="0 0 25 26" version="1.1" xmlns="http://www.w3.org/2000/svg" xmlns:xlink="http://www.w3.org/1999/xlink">
    <title>SrcIP</title>
    <g id="Page-2" stroke="none" stroke-width="1" fill="none" fill-rule="evenodd">
        <g id="NEW-Dashboard-21Oct" transform="translate(-1378.000000, -276.000000)" fill-rule="nonzero">
            <g id="SrcIP" transform="translate(1378.000000, 276.000000)">
                <path d="M8,0 C12.4182815,0 16,3.62649 16,8.099997 C16,9.712287 15.2910726,11.920026 14.5185185,13.200006 L14.5185185,13.200006 L8,24 L1.48148148,13.200006 C0.708942222,11.920056 0,9.712287 0,8.099997 C0,3.62649 3.58172148,0 8,0 Z M7.06531576,5.88359375 L5.90808919,5.88359375 L5.90808919,11.5 L7.06531576,11.5 L7.06531576,5.88359375 Z M10.200338,5.88359375 L8.00932237,5.88359375 L8.00932237,11.5 L9.16654893,11.5 L9.16654893,9.52114258 L10.1810509,9.52114258 C11.1801232,9.52114258 11.1801232,9.52114258 11.7452355,9.04475098 C12.3103478,8.56835938 12.3103478,8.56835938 12.3103478,7.74287109 C12.3103478,7.19897461 12.3103478,7.19897461 12.0519005,6.77272949 C11.7934532,6.34648438 11.7934532,6.34648438 11.3132042,6.11503906 C10.9129967,5.92216797 10.9129967,5.92216797 10.4069779,5.89002279 L10.200338,5.88359375 Z M10.2273399,6.82094727 C10.6555138,6.82866211 10.6555138,6.82866211 10.8985314,7.08325195 C11.1415489,7.3378418 11.1415489,7.3378418 11.1415489,7.75058594 C11.1415489,8.15175781 11.1415489,8.15175781 10.9004601,8.36777344 C10.6593712,8.58378906 10.6593712,8.58378906 10.200338,8.58378906 L9.16654893,8.58378906 L9.16654893,6.82094727 L10.2273399,6.82094727 Z" id="Combined-Shape" fill="#00BBB4"></path>
                <path d="M15.4400735,9.311524 C15.896913,9.311524 16.3407137,9.50959647 16.6251521,9.86912822 L16.7138618,9.99490188 L24.0119077,23.2642579 C23.7693071,25.1734578 23.2788938,25.2398343 22.8467704,25.2089265 L22.7443367,25.2005345 L22.669546,25.1950147 L22.669546,25.1950147 L22.59694,25.192672 L8.28306,25.192672 C7.60119278,25.192672 7.11692223,24.7873776 6.85909322,24.1908429 L6.80362702,24.0498836 L14.1613803,10.0035569 C14.4346344,9.55940223 14.928951,9.311524 15.4400735,9.311524 Z M13.989,16.389 L10.7426507,22.291036 L14.103,22.291 L14.0870047,22.2748484 C13.8221549,21.9612282 13.664116,21.5603403 13.664116,21.139464 C13.664116,20.677228 13.854898,20.2389081 14.1685548,19.9139235 C14.0779101,19.7496195 14.0170794,19.5594456 13.9967653,19.3467093 L13.98928,19.1875 L13.989,16.389 Z M16.89,16.391 L16.8907199,19.1877056 C16.8905804,19.465569 16.8240583,19.7094841 16.7107559,19.9147079 L16.688747,19.8907446 C17.0158457,20.2178433 17.215884,20.6660167 17.215884,21.139464 C17.215884,21.5680241 17.0518879,21.976026 16.7780161,22.2922049 L20.1373493,22.291036 L16.89,16.391 Z M15.44,13.7549796 L15.0050428,14.5430305 C15.1387617,14.5046769 15.2840231,14.483768 15.44,14.483768 C15.5955362,14.483768 15.7404398,14.5045719 15.8738785,14.5427462 L15.44,13.7549796 Z" id="Combined-Shape" stroke="#0D1726" stroke-width="1.6" fill="#FF2422"></path>
            </g>
        </g>
    </g>
</svg>