<?xml version="1.0" encoding="UTF-8"?>
<svg width="30px" height="21px" viewBox="0 0 30 21" version="1.1" xmlns="http://www.w3.org/2000/svg" xmlns:xlink="http://www.w3.org/1999/xlink">
    <title>TriggeredModels</title>
    <defs>
        <filter id="filter-1">
            <feColorMatrix in="SourceGraphic" type="matrix" values="0 0 0 0 0.741176 0 0 0 0 0.062745 0 0 0 0 0.878431 0 0 0 1.000000 0"></feColorMatrix>
        </filter>
    </defs>
    <g id="Page-2" stroke="none" stroke-width="1" fill="none" fill-rule="evenodd">
        <g id="TriggeredModels" transform="translate(-816.000000, -278.000000)" filter="url(#filter-1)">
            <g transform="translate(816.000000, 278.000000)">
                <g id="Group" fill="#000000" fill-rule="nonzero">
                    <path d="M27.753,14.19 C27.753,15.675 26.532,16.896 25.047,16.896 L4.818,16.896 C3.333,16.896 2.112,15.675 2.112,14.19 L2.112,2.739 C2.112,1.254 3.333,0.033 4.818,0.033 L25.047,0.033 C26.532,0.033 27.753,1.254 27.753,2.739 L27.753,14.19 L27.753,14.19 Z M25.41,14.058 L25.41,2.739 C25.41,2.409 25.179,2.178 24.849,2.178 L4.851,2.178 C4.521,2.178 4.29,2.442 4.29,2.739 L4.29,14.058 C4.29,14.388 4.554,14.619 4.851,14.619 L24.849,14.619 C25.179,14.652 25.41,14.388 25.41,14.058 Z" id="Shape"></path>
                    <path d="M29.568,18.81 C29.568,19.635 28.875,20.328 28.05,20.328 L1.65,20.328 C0.825,20.328 0.132,19.635 0.132,18.81 L0.132,17.688 L29.568,17.688 L29.568,18.81 L29.568,18.81 Z" id="Path"></path>
                </g>
                <g id="noun_model_2545645" transform="translate(10.000000, 4.000000)" fill="#000000" fill-rule="nonzero">
                    <path d="M7.837,5.0078 L6.6238,3.2968 C6.8604,2.957 7.0002,2.5448 7.0002,2.1004 C7.0002,0.9424 6.0582,0.0004 4.9002,0.0004 C3.7422,0.0004 2.8002,0.9424 2.8002,2.1004 C2.8002,2.545 2.94,2.957 3.1766,3.2968 L1.9632,5.0078 C0.8804,5.0904 0.024,5.9958 0.024,7.0996 C0.024,8.2576 0.966,9.1996 2.124,9.1996 C3.0362,9.1996 3.8122,8.6138 4.1016,7.7996 L5.6988,7.7996 C5.988,8.6138 6.764,9.1996 7.6764,9.1996 C8.8344,9.1996 9.7764,8.2576 9.7764,7.0996 C9.7762,5.9958 8.92,5.0904 7.837,5.0078 Z M5.6986,6.3996 L4.1014,6.3996 C3.9622,6.0076 3.7104,5.6698 3.3842,5.4238 L4.3124,4.1152 C4.4992,4.1698 4.6958,4.2004 4.9,4.2004 C5.1042,4.2004 5.301,4.1698 5.4876,4.1152 L6.4158,5.4238 C6.0896,5.6698 5.8378,6.0076 5.6986,6.3996 Z M4.9,1.4004 C5.286,1.4004 5.6,1.7144 5.6,2.1004 C5.6,2.4864 5.286,2.8004 4.9,2.8004 C4.514,2.8004 4.2,2.4864 4.2,2.1004 C4.2,1.7144 4.514,1.4004 4.9,1.4004 Z M2.1238,7.7996 C1.7378,7.7996 1.4238,7.4856 1.4238,7.0996 C1.4238,6.7136 1.7378,6.3996 2.1238,6.3996 C2.5098,6.3996 2.8238,6.7136 2.8238,7.0996 C2.8238,7.4856 2.5098,7.7996 2.1238,7.7996 Z M7.6762,7.7996 C7.2902,7.7996 6.9762,7.4856 6.9762,7.0996 C6.9762,6.7136 7.2902,6.3996 7.6762,6.3996 C8.0622,6.3996 8.3762,6.7136 8.3762,7.0996 C8.3762,7.4856 8.0622,7.7996 7.6762,7.7996 Z" id="Shape"></path>
                </g>
            </g>
        </g>
    </g>
</svg>