<?xml version="1.0" encoding="UTF-8"?>
<svg width="25px" height="20px" viewBox="0 0 25 20" version="1.1" xmlns="http://www.w3.org/2000/svg" xmlns:xlink="http://www.w3.org/1999/xlink">
    <title>users</title>
    <defs>
        <filter id="filter-1">
            <feColorMatrix in="SourceGraphic" type="matrix" values="0 0 0 0 0.960784 0 0 0 0 0.650980 0 0 0 0 0.137255 0 0 0 1.000000 0"></feColorMatrix>
        </filter>
    </defs>
    <g id="Page-2" stroke="none" stroke-width="1" fill="none" fill-rule="evenodd">
        <g id="users" transform="translate(-434.000000, -278.000000)" filter="url(#filter-1)">
            <g transform="translate(434.000000, 278.000000)">
                <path d="M7.5488922,0.0069012 C5.0444856,0.0069012 3.0070278,2.1671712 3.0070278,4.8224808 C3.0070278,7.4777904 5.0444856,9.6380604 7.5488922,9.6380604 C10.0532988,9.6380604 12.0908052,7.4777904 12.0908052,4.8224808 C12.0908052,2.1671712 10.0533474,0.0069012 7.5488922,0.0069012 Z" id="Path" fill="#000000" fill-rule="nonzero"></path>
                <path d="M17.8749828,0.6960006 C17.8647282,0.6960006 17.8543278,0.6960006 17.8440732,0.6960978 C16.7930496,0.7047972 15.8113296,1.1485638 15.0798024,1.9457496 C14.3611056,2.7288414 13.970313,3.7619316 13.979304,4.854654 C13.9883436,5.9473764 14.3961462,6.973857 15.1276248,7.7450418 C15.8648868,8.5222044 16.8415038,8.9490096 17.8808634,8.9490096 C17.8913124,8.9490096 17.9017614,8.9490096 17.912259,8.9489124 C18.9632826,8.940213 19.9450026,8.4963978 20.6765298,7.6992606 C21.3952266,6.9161688 21.7860192,5.8830786 21.7770282,4.7903076 C21.7583172,2.5258392 20.0109042,0.6960006 17.8749828,0.6960006 Z" id="Path" fill="#000000" fill-rule="nonzero"></path>
                <path d="M18.066564,9.7373988 L17.689428,9.7373988 C15.933024,9.7373988 14.330196,10.4051628 13.120056,11.4996348 C13.422834,11.7319428 13.711032,11.9851488 13.984164,12.2582808 C14.789952,13.0640688 15.422724,14.0030208 15.864984,15.0488928 C16.263504,15.9907608 16.490952,16.9831728 16.543926,18.0052308 L24.8832,18.0052308 L24.8832,16.5535488 C24.8832,12.7953108 21.825288,9.7373988 18.066564,9.7373988 Z" id="Path" fill="#000000" fill-rule="nonzero"></path>
                <path d="M15.08301,18.0052308 C14.945472,15.7895568 13.822326,13.8406968 12.146112,12.5916768 C10.926738,11.6828568 9.414306,11.1448548 7.776,11.1448548 L7.322076,11.1448548 C3.27807,11.1448548 0,14.4229248 0,18.4669308 L0,19.3358988 L15.09759,19.3358988 L15.09759,18.4669308 C15.09759,18.3118968 15.09273,18.1578348 15.08301,18.0052308 Z" id="Path" fill="#000000" fill-rule="nonzero"></path>
            </g>
        </g>
    </g>
</svg>