<?xml version="1.0" encoding="UTF-8"?>
<svg width="29px" height="24px" viewBox="0 0 29 24" version="1.1" xmlns="http://www.w3.org/2000/svg" xmlns:xlink="http://www.w3.org/1999/xlink">
    <title>EC213A14-330C-4B86-8003-9F6B775FD5AD</title>
    <g id="Page-2" stroke="none" stroke-width="1" fill="none" fill-rule="evenodd">
        <g id="NEW-Dashboard-21Oct" transform="translate(-235.000000, -274.000000)" fill="#50E3C2" fill-rule="nonzero">
            <path d="M235.852941,286.857143 C234.715686,286.857143 234.715686,285.142857 235.852941,285.142857 C236.795074,285.142857 237.558824,284.375345 237.558824,283.428571 L237.558824,277 C237.558824,275.343146 238.895385,274 240.544118,274 L240.970588,274 C241.441654,274 241.823529,274.383756 241.823529,274.857143 C241.823529,275.33053 241.441654,275.714286 240.970588,275.714286 L240.544118,275.714286 C239.837518,275.714286 239.264706,276.28992 239.264706,277 L239.264706,283.428571 C239.264706,284.452594 238.817974,285.371762 238.109674,286 C238.817974,286.628238 239.264706,287.547406 239.264706,288.571429 L239.264706,295 C239.264706,295.71008 239.837518,296.285714 240.544118,296.285714 L240.970588,296.285714 C241.441654,296.285714 241.823529,296.66947 241.823529,297.142857 C241.823529,297.616244 241.441654,298 240.970588,298 L240.544118,298 C238.895385,298 237.558824,296.656854 237.558824,295 L237.558824,288.571429 C237.558824,287.624655 236.795074,286.857143 235.852941,286.857143 Z M263.147059,286.857143 C262.204926,286.857143 261.441176,287.624655 261.441176,288.571429 L261.441176,295 C261.441176,296.656854 260.104615,298 258.455882,298 L258.029412,298 C257.558346,298 257.176471,297.616244 257.176471,297.142857 C257.176471,296.66947 257.558346,296.285714 258.029412,296.285714 L258.455882,296.285714 C259.162482,296.285714 259.735294,295.71008 259.735294,295 L259.735294,288.571429 C259.735294,287.547406 260.182026,286.628238 260.890326,286 C260.182026,285.371762 259.735294,284.452594 259.735294,283.428571 L259.735294,277 C259.735294,276.28992 259.162482,275.714286 258.455882,275.714286 L258.029412,275.714286 C257.558346,275.714286 257.176471,275.33053 257.176471,274.857143 C257.176471,274.383756 257.558346,274 258.029412,274 L258.455882,274 C260.104615,274 261.441176,275.343146 261.441176,277 L261.441176,283.428571 C261.441176,284.375345 262.204926,285.142857 263.147059,285.142857 C264.284314,285.142857 264.284314,286.857143 263.147059,286.857143 Z M242.676471,280 C242.205404,280 241.823529,279.616244 241.823529,279.142857 C241.823529,278.66947 242.205404,278.285714 242.676471,278.285714 L248.647059,278.285714 C249.118125,278.285714 249.5,278.66947 249.5,279.142857 C249.5,279.616244 249.118125,280 248.647059,280 L242.676471,280 Z M242.676471,293.714286 C242.205404,293.714286 241.823529,293.33053 241.823529,292.857143 C241.823529,292.383756 242.205404,292 242.676471,292 L248.647059,292 C249.118125,292 249.5,292.383756 249.5,292.857143 C249.5,293.33053 249.118125,293.714286 248.647059,293.714286 L242.676471,293.714286 Z M248.647059,284.714286 C248.175993,284.714286 247.794118,284.33053 247.794118,283.857143 C247.794118,283.383756 248.175993,283 248.647059,283 L256.323529,283 C256.794596,283 257.176471,283.383756 257.176471,283.857143 C257.176471,284.33053 256.794596,284.714286 256.323529,284.714286 L248.647059,284.714286 Z M248.647059,289 C248.175993,289 247.794118,288.616244 247.794118,288.142857 C247.794118,287.66947 248.175993,287.285714 248.647059,287.285714 L256.323529,287.285714 C256.794596,287.285714 257.176471,287.66947 257.176471,288.142857 C257.176471,288.616244 256.794596,289 256.323529,289 L248.647059,289 Z" id="events"></path>
        </g>
    </g>
</svg>