<?xml version="1.0" encoding="UTF-8"?>
<svg width="30px" height="21px" viewBox="0 0 30 21" version="1.1" xmlns="http://www.w3.org/2000/svg" xmlns:xlink="http://www.w3.org/1999/xlink">
    <title>AA40E5C5-73FF-47E8-8633-3DE504CAA654</title>
    <defs>
        <filter id="filter-1">
            <feColorMatrix in="SourceGraphic" type="matrix" values="0 0 0 0 0.007843 0 0 0 0 0.729412 0 0 0 0 0.129412 0 0 0 1.000000 0"></feColorMatrix>
        </filter>
    </defs>
    <g id="Page-2" stroke="none" stroke-width="1" fill="none" fill-rule="evenodd">
        <g id="eye" transform="translate(-426.000000, -377.000000)" filter="url(#filter-1)">
            <g transform="translate(426.000000, 377.000000)">
                <path d="M24.884496,16.186716 C24.884496,16.599492 24.560172,16.923816 24.147396,16.923816 L17.955756,16.923816 C17.719884,17.425044 17.218656,17.778852 16.599492,17.778852 L12.884508,17.778852 C12.294828,17.778852 11.764116,17.425044 11.528244,16.923816 L5.336604,16.923816 C4.923828,16.923816 4.599504,16.599492 4.599504,16.186716 C4.599504,15.77394 4.923828,15.449616 5.336604,15.449616 L12.117924,15.449616 C12.5307,15.449616 12.855024,15.77394 12.855024,16.186716 L12.855024,16.304652 L16.599492,16.304652 L16.599492,16.186716 C16.599492,15.77394 16.923816,15.449616 17.336592,15.449616 L24.147396,15.449616 C24.530688,15.449616 24.884496,15.803424 24.884496,16.186716 Z M27.243216,2.152332 L27.243216,15.449616 L28.628964,15.449616 C29.04174,15.449616 29.366064,15.77394 29.366064,16.186716 L29.366064,17.572464 C29.366064,19.135116 28.098252,20.402928 26.5356,20.402928 L2.9484,20.402928 C1.385748,20.402928 0.117936,19.135116 0.117936,17.572464 L0.117936,16.186716 C0.117936,15.77394 0.44226,15.449616 0.855036,15.449616 L2.240784,15.449616 L2.240784,2.152332 C2.240784,1.090908 3.09582,0.235872 4.157244,0.235872 L25.238304,0.235872 C26.270244,0.235872 27.12528,1.03194 27.213732,2.093364 C27.243216,2.122848 27.243216,2.122848 27.243216,2.152332 Z M26.506116,16.923816 C26.09334,16.923816 25.769016,16.599492 25.769016,16.186716 L25.769016,2.2113 C25.739532,1.945944 25.50366,1.710072 25.267788,1.710072 L4.157244,1.710072 C3.921372,1.710072 3.714984,1.91646 3.714984,2.152332 L3.714984,16.186716 C3.714984,16.599492 3.39066,16.923816 2.977884,16.923816 L1.592136,16.923816 L1.592136,17.572464 C1.592136,18.309564 2.2113,18.928728 2.9484,18.928728 L26.5356,18.928728 C27.2727,18.928728 27.891864,18.309564 27.891864,17.572464 L27.891864,16.923816 L26.506116,16.923816 Z M6.692868,9.081072 C6.515964,8.815716 6.515964,8.491392 6.692868,8.226036 C6.840288,8.019648 10.054044,3.508596 14.742,3.508596 C19.400472,3.508596 22.643712,8.049132 22.791132,8.226036 C22.968036,8.491392 22.968036,8.815716 22.791132,9.081072 C22.643712,9.28746 19.429956,13.798512 14.742,13.798512 C10.083528,13.827996 6.840288,9.28746 6.692868,9.081072 Z M8.226036,8.668296 C9.110556,9.72972 11.587212,12.353796 14.742,12.353796 C17.896788,12.353796 20.373444,9.72972 21.257964,8.668296 C20.373444,7.606872 17.896788,4.982796 14.742,4.982796 C11.616696,4.982796 9.110556,7.606872 8.226036,8.668296 Z M12.058956,8.55036 C12.058956,7.07616 13.2678,5.867316 14.742,5.867316 C16.2162,5.867316 17.425044,7.07616 17.425044,8.55036 C17.425044,10.02456 16.2162,11.20392 14.742,11.20392 C13.2678,11.20392 12.058956,10.02456 12.058956,8.55036 Z M13.533156,8.55036 C13.533156,9.199008 14.063868,9.759204 14.742,9.759204 C15.420132,9.759204 15.950844,9.228492 15.950844,8.55036 C15.950844,7.872228 15.420132,7.341516 14.742,7.341516 C14.063868,7.341516 13.533156,7.872228 13.533156,8.55036 Z" id="Shape" stroke="#041421" stroke-width="0.2" fill="#787E98" fill-rule="nonzero"></path>
            </g>
        </g>
    </g>
</svg>