<?xml version="1.0" encoding="UTF-8"?>
<svg width="30px" height="23px" viewBox="0 0 30 23" version="1.1" xmlns="http://www.w3.org/2000/svg" xmlns:xlink="http://www.w3.org/1999/xlink">
    <title>AB6E3662-CCB8-4AF0-81CD-AC4B2C929B18</title>
    <defs>
        <filter id="filter-1">
            <feColorMatrix in="SourceGraphic" type="matrix" values="0 0 0 0 0.288656 0 0 0 0 0.564552 0 0 0 0 0.886239 0 0 0 1.000000 0"></feColorMatrix>
        </filter>
    </defs>
    <g id="Page-2" stroke="none" stroke-width="1" fill="none" fill-rule="evenodd">
        <g id="vectors" transform="translate(-997.000000, -277.000000)" filter="url(#filter-1)">
            <g transform="translate(997.000000, 277.000000)">
                <polygon id="Path" fill="#000000" fill-rule="nonzero" points="15.78125 20 16.25 22.5 8.75 22.5 9.21875 20"></polygon>
                <path d="M25,10.2587906 L25,1.25935496 C25,0.561150256 24.4449433,0 23.7602461,0 L1.23975389,0 C0.56913197,0 0,0.563832425 0,1.25935496 L0,17.490645 C0,18.1888497 0.555056721,18.75 1.23975389,18.75 L16.5087906,18.75 C16.340209,18.1539603 16.25,17.5250149 16.25,16.875 C16.25,16.664319 16.2594766,16.4558513 16.2780269,16.25 L1.25,16.25 L1.25,1.25 L23.75,1.25 L23.75,10.0280269 C24.1792623,10.0667098 24.597147,10.1448492 25,10.2587906 Z" id="Path" fill="#000000" fill-rule="nonzero"></path>
                <rect id="Rectangle" fill="#000000" fill-rule="nonzero" x="7.5" y="21.25" width="10" height="1.25" rx="0.625"></rect>
                <path d="M9.48181152,6.05834961 L9.48181152,4.69116211 L3.95202636,7.85888673 L3.95202636,8.9086914 L9.48181152,11.8994141 L9.48181152,10.5322266 L5.27648926,8.37768555 L5.27648926,8.3227539 L9.48181152,6.05834961 Z M11.7462158,13.803711 L14.4073486,3.06152344 L13.2232666,3.06152344 L10.5926514,13.803711 L11.7462158,13.803711 Z M15.5181885,6.0522461 L19.7235107,8.31665039 L19.7235107,8.37158203 L15.5181885,10.5261231 L15.5181885,11.8933106 L21.0479736,8.90258789 L21.0479736,7.8527832 L15.5181885,4.6850586 L15.5181885,6.0522461 Z" id="Shape" fill="#000000" fill-rule="nonzero"></path>
                <g id="Group" transform="translate(17.500000, 11.850000)" fill="#000000" fill-rule="nonzero">
                    <path d="M2.11657394,7.59180548 C1.52446452,7.84279141 1.10407334,8.09729808 0.867049907,8.28106253 C0.594255774,8.49256003 0.544565031,8.88515596 0.756062528,9.15795009 C0.967560024,9.43074423 1.36015596,9.48043496 1.63295009,9.26893748 C1.79315524,9.1447303 2.13504894,8.93854481 2.64229873,8.72674163 C2.67938174,8.71125754 2.71671668,8.69603841 2.7543026,8.68109009 C2.48458094,8.35928209 2.26754138,7.99167443 2.11657394,7.59180548 Z M8.50027001,8.6829105 C8.53631177,8.69727353 8.57212248,8.71188563 8.60770128,8.72674163 C9.11495106,8.93854481 9.45684476,9.1447303 9.61704991,9.26893748 C9.88984404,9.48043496 10.28244,9.43074423 10.4939375,9.15795009 C10.705435,8.88515596 10.6557442,8.49256003 10.3829501,8.28106253 C10.1462052,8.09751404 9.72652333,7.84338951 9.1355129,7.59269038 C8.98540074,7.99330005 8.76928946,8.36114236 8.50027001,8.6829105 Z M9.32183099,6.9 L10.625,6.9 C10.970178,6.9 11.25,6.62017796 11.25,6.275 C11.25,5.92982204 10.970178,5.65 10.625,5.65 L9.375,5.65 L9.375,6.26278105 C9.375,6.48003183 9.35679903,6.692924 9.32183099,6.9 Z M9.37058082,4.85342299 C9.83897252,4.63775368 10.1789063,4.4271328 10.3829501,4.26893748 C10.6557442,4.05743998 10.705435,3.66484404 10.4939375,3.39204991 C10.28244,3.11925578 9.88984404,3.06956504 9.61704991,3.28106253 C9.51454989,3.36053088 9.33767561,3.47355706 9.09070464,3.60014193 C9.25168895,3.98953445 9.3492928,4.41165438 9.37058082,4.85342299 Z M7.69762602,1.90299806 L8.08520574,0.86945215 C8.20640581,0.546251948 8.04265235,0.18599434 7.71945215,0.0647942638 C7.39625195,-0.0564058125 7.03599434,0.107347645 6.91479426,0.430547849 L6.55431472,1.39182661 C6.96699146,1.49771844 7.35238109,1.67244226 7.69762602,1.90299806 Z M4.69522456,1.39059804 L4.33520574,0.430547849 C4.21400566,0.107347645 3.85374805,-0.0564058125 3.53054785,0.0647942638 C3.20734765,0.18599434 3.04359419,0.546251948 3.16479426,0.86945215 L3.55085808,1.89895566 C3.89600598,1.66940394 4.28163968,1.49570429 4.69522456,1.39059804 Z M2.15701351,3.59897173 C1.91123467,3.47286058 1.73513416,3.36028591 1.63295009,3.28106253 C1.36015596,3.06956504 0.967560024,3.11925578 0.756062528,3.39204991 C0.544565031,3.66484404 0.594255774,4.05743998 0.867049907,4.26893748 C1.07108547,4.4271264 1.41099995,4.63773663 1.87936229,4.85339679 C1.90042307,4.41069658 1.99716601,3.98829321 2.15701351,3.59897173 Z M1.875,5.65 L0.625,5.65 C0.279822031,5.65 0,5.92982204 0,6.275 C0,6.62017796 0.279822031,6.9 0.625,6.9 L1.92880919,6.9 C1.89343071,6.69280468 1.875,6.47989856 1.875,6.26278105 L1.875,5.65 Z" id="Shape"></path>
                    <path d="M5.3125,9.38444561 C3.73333666,9.22640663 2.5,7.88379991 2.5,6.26278105 L2.5,5.03721895 C2.5,5.03314415 2.5,5.02907116 2.5,5.025 L5.3125,5.025 L5.3125,9.38444561 Z M5.9375,9.38470206 C7.52627185,9.22819986 8.75,7.8902023 8.75,6.26278105 L8.75,5.03721895 C8.75,5.0331442 8.75,5.02907121 8.75,5.025 L5.9375,5.025 L5.9375,9.38470206 Z M2.56400309,4.4 C2.85514856,2.97289553 4.10607704,1.9 5.625,1.9 C7.13278348,1.9 8.39116098,2.97667398 8.68513195,4.4 L2.56400309,4.4 Z" id="Shape"></path>
                </g>
            </g>
        </g>
    </g>
</svg>