<?xml version="1.0" encoding="UTF-8"?>
<svg width="28px" height="26px" viewBox="0 0 28 26" version="1.1" xmlns="http://www.w3.org/2000/svg" xmlns:xlink="http://www.w3.org/1999/xlink">
    <title>DA1F1F25-5101-472C-9611-7896CF9D72E1</title>
    <defs>
        <filter id="filter-1">
            <feColorMatrix in="SourceGraphic" type="matrix" values="0 0 0 0 1.000000 0 0 0 0 0.352941 0 0 0 0 0.352941 0 0 0 1.000000 0"></feColorMatrix>
        </filter>
    </defs>
    <g id="Page-2" stroke="none" stroke-width="1" fill="none" fill-rule="evenodd">
        <g id="warning" transform="translate(-628.000000, -275.000000)" filter="url(#filter-1)">
            <g transform="translate(628.000000, 275.000000)">
                <path d="M26.78025,25.7012 L1.21975,25.7012 C0.75495,25.7012 0.40635,25.46845 0.1743,25.1202 C-0.05845,24.77195 -0.05845,24.3068 0.1743,23.95855 L12.95455,0.72205 C13.41935,0.02485 14.58065,0.02485 15.0465,0.72205 L27.8264,23.95855 C28.0581,24.3068 28.0581,24.77195 27.8264,25.1202 C27.5933,25.46845 27.2454,25.7012 26.78025,25.7012 Z M3.19515,23.37685 L24.80485,23.37685 L14,3.7422 L3.19515,23.37685 Z" id="Shape" fill="#000000" fill-rule="nonzero"></path>
                <path d="M14,17.56825 C13.3028,17.56825 12.838,17.1031 12.838,16.40625 L12.838,10.59695 C12.838,9.89975 13.3028,9.4353 14,9.4353 C14.69685,9.4353 15.162,9.89975 15.162,10.59695 L15.162,16.4059 C15.16165,17.1031 14.6965,17.56825 14,17.56825 Z" id="Path" fill="#000000" fill-rule="nonzero"></path>
                <g id="Group" transform="translate(12.250000, 17.850000)" fill="#000000" fill-rule="nonzero">
                    <circle id="Oval" cx="1.75" cy="2.04155" r="1.16165"></circle>
                    <path d="M1.75,3.78455 C0.82075,3.78455 0.00735,2.97115 0.00735,2.0419 C0.00735,1.113 0.8211,0.29925 1.75,0.29925 C2.6789,0.29925 3.49265,1.11265 3.49265,2.0419 C3.49265,2.9708 2.6789,3.78455 1.75,3.78455 Z M1.75,1.4609 C1.40175,1.4609 1.169,1.69365 1.169,2.04155 C1.169,2.3898 1.40175,2.6222 1.75,2.6222 C2.09895,2.6222 2.33135,2.3898 2.33135,2.04155 C2.331,1.69365 2.0986,1.4609 1.75,1.4609 Z" id="Shape"></path>
                </g>
            </g>
        </g>
    </g>
</svg>